<svg version="1.1" id="Layer_1" xmlns="http://www.w3.org/2000/svg" xmlns:xlink="http://www.w3.org/1999/xlink" x="0px" y="0px"
	 width="100%" viewBox="0 0 500 500" enable-background="new 0 0 500 500" xml:space="preserve">
<path fill="#1CD4C5" opacity="1.000000" stroke="none" 
	d="
M46.910011,96.936806 
	C47.403038,96.330368 47.896065,95.723938 49.135498,95.066132 
	C87.270523,94.973671 124.659149,94.932594 162.047775,94.891525 
	C176.056229,96.053352 189.850876,98.142937 203.186096,102.927521 
	C227.216141,111.549324 244.756760,127.134109 253.453995,151.250061 
	C256.713837,160.289078 257.330475,170.297546 258.998444,179.890747 
	C261.623260,194.987091 258.919952,209.511963 254.092102,223.804047 
	C247.476944,243.386993 234.355469,257.313049 216.524933,267.133881 
	C212.290405,269.466156 207.900513,271.516327 202.502319,274.241302 
	C204.243713,278.635529 205.941620,283.598297 208.131836,288.333344 
	C219.714157,313.373260 231.433395,338.349762 243.078247,363.360809 
	C249.100159,376.294800 255.113190,389.233368 261.023041,402.218658 
	C262.415039,405.277161 265.198029,408.810516 259.026428,410.645477 
	C238.859711,410.241760 219.389175,410.157166 199.918625,410.072571 
	C198.284363,407.735291 196.262695,405.578400 195.077225,403.032196 
	C185.765167,383.031189 176.586533,362.967804 167.419586,342.899506 
	C158.860489,324.161865 150.396820,305.380524 141.776718,286.671143 
	C141.182312,285.381042 139.668442,283.658112 138.523453,283.612518 
	C128.673645,283.220734 118.810326,283.168701 108.121140,283.175354 
	C106.861717,285.349640 106.061584,287.363098 106.057571,289.378143 
	C105.982582,327.019867 105.989731,364.661804 106.037712,402.303619 
	C106.040176,404.239777 106.562248,406.175262 106.842400,408.111084 
	C105.774902,409.064423 104.707413,410.017761 102.985626,410.648193 
	C84.151100,410.208618 65.970879,410.091949 47.790657,409.975311 
	C47.519577,409.540924 47.248497,409.106506 46.995575,407.912079 
	C47.007683,346.490051 47.001625,285.828064 46.995571,225.166061 
	C83.631317,225.110794 120.269516,225.278351 156.901413,224.874710 
	C169.085907,224.740448 180.777939,222.241669 189.899017,212.695312 
	C197.144104,205.112411 199.669662,196.061798 198.850754,186.165359 
	C197.934723,175.095169 193.357788,165.293488 183.164200,159.999008 
	C176.672577,156.627289 169.185059,153.489410 162.062469,153.298889 
	C125.510597,152.321213 88.932266,152.331009 52.363064,152.008270 
	C50.802433,151.994492 49.240719,152.103806 47.336742,151.536896 
	C46.965988,132.924286 46.938000,114.930550 46.910011,96.936806 
z"/>
<path fill="#1DD4C5" opacity="1.000000" stroke="none" 
	d="
M411.864319,187.025894 
	C410.928894,184.387070 409.523651,181.815659 409.133667,179.098541 
	C406.438812,160.323257 389.981598,153.128891 374.612457,152.000275 
	C362.184692,151.087677 351.378265,155.154556 342.365204,163.450211 
	C336.963287,168.422165 334.236053,175.303482 333.360596,182.472412 
	C331.900726,194.426834 333.378387,205.909500 343.074188,214.459137 
	C350.876801,221.339371 360.460510,224.843964 370.702576,224.836578 
	C383.842194,224.827103 396.430298,227.136536 408.714478,231.361298 
	C433.038330,239.726730 451.674042,255.247192 461.747803,278.882385 
	C475.512054,311.176208 473.981384,343.284332 453.541534,372.571320 
	C439.817413,392.235748 419.798279,403.519226 396.223328,407.991547 
	C388.536041,409.449890 380.677734,410.006866 372.448975,410.447205 
	C372.000275,391.496155 372.000275,373.073975 372.000275,354.742615 
	C374.289215,354.119171 376.019135,353.648010 377.749023,353.176819 
	C395.221924,350.387909 411.981384,336.719513 410.895752,317.013519 
	C409.964417,300.108307 397.242615,286.500336 380.023560,282.169464 
	C372.167511,280.193573 363.729034,280.614319 355.783752,278.891693 
	C345.842194,276.736237 335.685120,274.514771 326.454346,270.436035 
	C317.062439,266.286102 307.652405,260.986237 300.086975,254.155640 
	C286.659973,242.032761 277.640686,226.695435 275.010132,208.342758 
	C274.011078,201.372498 273.114746,194.311615 273.100891,187.290222 
	C273.058990,166.033173 279.898651,147.056976 293.108826,130.371582 
	C306.080444,113.987488 323.277313,104.573746 343.085175,98.815979 
	C359.101685,94.160286 374.964661,94.420059 391.237427,96.821594 
	C406.196014,99.029182 419.774658,104.365059 431.865082,113.049805 
	C450.882294,126.710152 462.919983,145.148270 466.992218,168.418793 
	C467.919983,173.720673 468.392975,179.105759 468.943878,184.466049 
	C469.025635,185.261505 468.379120,186.131805 467.164246,186.971649 
	C448.127380,186.992493 429.995850,187.009201 411.864319,187.025894 
z"/>
<path fill="#AFF0EB" opacity="1.000000" stroke="none" 
	d="
M46.577950,225.290314 
	C47.001625,285.828064 47.007683,346.490051 46.979408,407.625458 
	C46.630051,406.925995 46.040245,405.753357 46.039394,404.580231 
	C45.996357,345.353394 46.003227,286.126495 46.011810,226.899612 
	C46.011883,226.404602 46.108685,225.909576 46.577950,225.290314 
z"/>
<path fill="#63E1D7" opacity="1.000000" stroke="none" 
	d="
M106.920395,407.637146 
	C106.562248,406.175262 106.040176,404.239777 106.037712,402.303619 
	C105.989731,364.661804 105.982582,327.019867 106.057571,289.378143 
	C106.061584,287.363098 106.861717,285.349640 107.662827,283.222412 
	C107.689499,285.003082 107.046394,286.896332 107.043579,288.790527 
	C106.984909,328.248016 106.998802,367.705658 106.920395,407.637146 
z"/>
<path fill="#C7F4F0" opacity="1.000000" stroke="none" 
	d="
M161.838440,94.506958 
	C124.659149,94.932594 87.270523,94.973671 49.412987,94.957611 
	C49.783241,94.600189 50.622387,94.037437 51.461578,94.037376 
	C88.184090,94.034546 124.906601,94.081467 161.838440,94.506958 
z"/>
<path fill="#90EAE3" opacity="1.000000" stroke="none" 
	d="
M377.319763,353.115234 
	C376.019135,353.648010 374.289215,354.119171 372.000275,354.742615 
	C372.000275,373.073975 372.000275,391.496155 371.999603,410.376343 
	C371.666748,410.211670 371.046112,409.589783 371.044373,408.966156 
	C370.992706,390.504639 371.002411,372.042938 371.002411,353.053589 
	C373.065125,353.053589 374.977814,353.053589 377.319763,353.115234 
z"/>
<path fill="#8EE9E2" opacity="1.000000" stroke="none" 
	d="
M200.131668,410.457703 
	C219.389175,410.157166 238.859711,410.241760 258.659149,410.580688 
	C239.440262,410.837616 219.892487,410.840210 200.131668,410.457703 
z"/>
<path fill="#B0F0EB" opacity="1.000000" stroke="none" 
	d="
M46.523323,97.144966 
	C46.938000,114.930550 46.965988,132.924286 46.993420,151.376007 
	C46.662483,151.051376 46.044460,150.268921 46.043999,149.486115 
	C46.033741,132.108490 46.091667,114.730797 46.523323,97.144966 
z"/>
<path fill="#57DFD4" opacity="1.000000" stroke="none" 
	d="
M412.084808,187.412735 
	C429.995850,187.009201 448.127380,186.992493 466.747192,186.975342 
	C466.551605,187.315186 465.867554,187.952805 465.183899,187.952393 
	C447.557678,187.941956 429.931488,187.865005 412.084808,187.412735 
z"/>
<path fill="#8FE9E2" opacity="1.000000" stroke="none" 
	d="
M48.013954,410.369019 
	C65.970879,410.091949 84.151100,410.208618 102.659943,410.580048 
	C84.738121,410.810791 66.487686,410.786774 48.013954,410.369019 
z"/>
</svg>